# xmcd
#
# Track frame offsets: 
#        150
#        16717
#        31882
#        75206
#        90803
#        104135
#        119174
#        138927
#        159775
#        181475
#        196719
#        215997
#        234384
#        254413
#        268952
#        293240
#        311168
#        335108
#
# Disc length: 4771 seconds
#
# Revision: 1
# Processed by: cddbd v1.5.2PL0 Copyright (c) Steve Scherf et al.
# Submitted via: ExactAudioCopy v1.3
#
DISCID=fe12a112
DTITLE=Various Artist - Akella Presents - vol.135 - Black Pure Blues 
DTITLE=CD1
DYEAR=2018
DGENRE=Blues
TTITLE0=Mighty Mo Rodgers - Black Coffee And Cigarettes
TTITLE1=Bobby Jones - Two Headed Woman
TTITLE2=Lurrie Bell - A Man And The Blues
TTITLE3=George Stancell - Standin' In The Rain
TTITLE4=Willie Buck - She's All Right
TTITLE5=Michael Powers - It's A Bloody
TTITLE6=Jordan Patterson - Give Me A Chance
TTITLE7=Magic Slim - Spider In My Stew
TTITLE8=Chris Cain - Street of Broken Dreams
TTITLE9=Kenny 'Blues Boss' Wayne - Leavin' In The Morning
TTITLE10=Albert Collins - Honey Hush
TTITLE11=Stoney B and Grampa - Down Home Blues
TTITLE12=Carlos Johnson and Lefty Dizz - The Healer
TTITLE13=James Glass - Look Now Baby
TTITLE14=Luther Allison - Big City
TTITLE15=Eddie C. Campbell - Devil's Walk
TTITLE16=Larry Garner - Dog House Blues
TTITLE17=Cephas and Wiggins - Black Rat Swing
EXTD=
EXTT0=
EXTT1=
EXTT2=
EXTT3=
EXTT4=
EXTT5=
EXTT6=
EXTT7=
EXTT8=
EXTT9=
EXTT10=
EXTT11=
EXTT12=
EXTT13=
EXTT14=
EXTT15=
EXTT16=
EXTT17=
PLAYORDER=
